<svg width="430" height="175" xmlns="http://www.w3.org/2000/svg">
 <metadata id="metadata8">image/svg+xml</metadata>
 <defs>
  <clipPath id="clipPath18" clipPathUnits="userSpaceOnUse">
   <path id="path16" d="m-436.9998,943.80992l841.89,0l0,-595.28l-841.89,0l0,595.28z"/>
  </clipPath>
 </defs>
 <g>
  <title>background</title>
  <rect x="-1" y="-1" width="432" height="177" id="canvas_background" fill="none"/>
 </g>
 <g>
  <title>Layer 1</title>
  <g transform="matrix(1.3333333,0,0,-1.3333333,0,793.70667) " id="g10">
   <g id="g12">
    <g clip-path="url(#clipPath18)" id="g14">
     <g id="g20">
      <path id="path22" d="m237.424,543.47813c0.099,-0.405 0.457,-0.687 0.873,-0.687l8.356,0c0.277,0 0.536,0.125 0.707,0.344c0.17,0.218 0.232,0.498 0.166,0.768l-4.649,18.392c-0.098,0.405 -0.456,0.687 -0.872,0.687l-8.355,0c-0.279,0 -0.537,-0.125 -0.707,-0.344c-0.171,-0.218 -0.234,-0.498 -0.166,-0.768l4.647,-18.392z" fill-rule="evenodd" fill="#000000"/>
     </g>
     <g id="g24">
      <path id="path26" d="m274.64858,542.79213l8.354,0c0.417,0 0.777,0.283 0.875,0.689l4.574,18.393c0.065,0.27 0.006,0.548 -0.168,0.767c-0.171,0.216 -0.428,0.341 -0.705,0.341l-8.282,0c-0.416,0 -0.775,-0.282 -0.873,-0.685l-4.648,-18.393c-0.064,-0.27 -0.005,-0.55 0.166,-0.768c0.172,-0.219 0.43,-0.344 0.707,-0.344" fill-rule="evenodd" fill="#000000"/>
     </g>
     <g id="g28">
      <path id="path30" d="m294.39962,537.98201l-28.489,0l0.043,25.121l-0.008,0.409c0.002,0.804 -0.65,1.456 -1.452,1.458l-0.481,0l-6.604,0.011l-0.193,0.001c-0.802,0.001 -1.457,-0.649 -1.458,-1.453l0.006,-0.114l-0.043,-25.42l-26.617,0.045c-0.049,0 -0.126,-0.023 -0.216,-0.058l-2.682,0c-0.805,0 -1.455,-0.651 -1.455,-1.455l0,-0.478l0,-3.515l0,-0.192c0,-0.803 0.65,-1.455 1.455,-1.455l11.207,0c-0.739,-4.24 -3.546,-14.076 -4.072,-16.079c-1.554,-5.941 -3.036,-10.234 -5.375,-16.849c-0.097,-0.278 -0.054,-0.589 0.118,-0.831c0.168,-0.24 0.431,-0.378 0.723,-0.379l8.322,-0.015c0.377,0 0.718,0.238 0.849,0.593c2.074,5.66 3.527,10.145 5.268,16.374c0.623,2.236 3.306,12.346 4.437,17.186l8.027,0l-0.056,-33.281l-0.007,-0.3c-0.002,-0.803 0.649,-1.456 1.453,-1.457l0.193,-0.001l6.604,-0.011l0.48,0c0.803,-0.001 1.457,0.648 1.458,1.453l0.007,0.299l0.057,33.295l8.289,-0.014c1.139,-5.266 3.375,-13.845 4.349,-17.227c1.872,-6.503 3.251,-11.054 5.235,-16.396c0.132,-0.356 0.471,-0.592 0.844,-0.592l8.327,-0.015c0.29,0 0.555,0.137 0.726,0.376c0.17,0.242 0.215,0.554 0.118,0.832c-2.058,5.882 -3.698,10.584 -5.342,16.868c-0.518,1.972 -3.344,11.879 -4.065,16.137l9.131,-0.016c0.032,0 0.06,0.033 0.089,0.05l0.8,0c0.804,0 1.454,0.652 1.454,1.455l0,0.192l0,3.515l0,0.478c0,0.804 -0.65,1.455 -1.454,1.455" fill-rule="evenodd" fill="#000000"/>
     </g>
     <g id="g32">
      <path id="path34" d="m184.9973,564.97032l-0.479,0l-6.605,0.012l-0.191,0c-0.804,0.002 -1.457,-0.648 -1.458,-1.452l-0.001,-0.639l-0.096,-57.057c-0.002,-0.739 -0.262,-1.346 -0.795,-1.855c-0.536,-0.51 -1.134,-0.758 -1.826,-0.757l-5.1,0.009l-0.231,-0.011c-0.804,0.001 -1.456,-0.649 -1.457,-1.453l-0.001,-0.48l-0.006,-3.773l-0.001,-0.191c-0.001,-0.805 0.648,-1.457 1.453,-1.458l0.23,0l12.525,-0.021c1.438,-0.003 2.71,0.521 3.775,1.557c1.069,1.037 1.613,2.295 1.615,3.736l0.104,61.737l-0.001,0.638c0.001,0.804 -0.65,1.457 -1.454,1.458" fill-rule="evenodd" fill="#000000"/>
     </g>
     <g id="g36">
      <path id="path38" d="m163.15551,555.98201l-8.388,0c-0.476,0 -0.871,-0.38 -0.897,-0.865c-0.199,-3.731 -0.868,-13.713 -2.331,-23.073c-1.657,-10.601 -4.766,-22.323 -4.766,-22.323c-0.062,-0.272 0.003,-0.554 0.178,-0.775c0.172,-0.215 0.426,-0.339 0.696,-0.339l8.434,0c0.417,0 0.767,0.304 0.879,0.711c2.278,8.412 3.607,14.058 4.934,22.963c1.355,9.067 1.657,13.664 2.158,22.739c0.015,0.248 -0.077,0.497 -0.25,0.68c-0.17,0.182 -0.401,0.282 -0.647,0.282" fill-rule="evenodd" fill="#000000"/>
     </g>
     <g id="g40">
      <path id="path42" d="m210.2658,532.04411c-1.463,9.36 -2.132,19.342 -2.332,23.073c-0.025,0.485 -0.42,0.865 -0.897,0.865l-8.387,0c-0.246,0 -0.477,-0.1 -0.649,-0.282c-0.173,-0.183 -0.263,-0.432 -0.25,-0.68c0.503,-9.075 0.805,-13.672 2.159,-22.739c1.328,-8.905 2.657,-14.551 4.935,-22.963c0.111,-0.407 0.462,-0.711 0.879,-0.711l8.434,0c0.27,0 0.524,0.124 0.695,0.339c0.177,0.221 0.241,0.503 0.179,0.775c0,0 -3.109,11.722 -4.766,22.323" fill-rule="evenodd" fill="#000000"/>
     </g>
     <g id="g44">
      <path id="path46" d="m122.924,478.98202l-94.301,0c-2.138,0 -3.873,1.733 -3.873,3.874l0,94.3c0,2.14 1.735,3.874 3.873,3.874l94.301,0c2.139,0 3.874,-1.734 3.874,-3.874l0,-94.3c0,-2.141 -1.735,-3.874 -3.874,-3.874" fill-rule="evenodd" fill="#fd6700"/>
     </g>
     <g id="g48">
      <path id="path50" d="m104.4572,548.98201l-8.081,0c-0.347,0 -0.626,-0.275 -0.626,-0.614l0,-37.32c0,-0.336 0.279,-0.611 0.626,-0.611l8.081,0c0.343,0 0.627,0.275 0.627,0.611l0,37.32c0,0.339 -0.284,0.614 -0.627,0.614" fill-rule="evenodd" fill="#ffffff"/>
     </g>
     <g id="g52">
      <path id="path54" d="m78.5642,548.98201l-32.19,0c-0.346,0 -0.624,-0.275 -0.624,-0.614l0,-37.32c0,-0.336 0.278,-0.611 0.624,-0.611l8.083,0c0.345,0 0.628,0.275 0.628,0.611l0,28.937c0,0.334 0.279,0.611 0.625,0.611l19.023,0c3.133,0 4.674,-2.568 4.674,-4.836l0,-24.712c0,-0.336 0.282,-0.611 0.628,-0.611l8.078,0c0.344,0 0.626,0.275 0.626,0.611l0,27.721c0,5.309 -4.357,10.213 -10.175,10.213" fill-rule="evenodd" fill="#ffffff"/>
     </g>
     <g id="g56">
      <path id="path58" d="m71.49819,533.98201l-8.144,0c-0.332,0 -0.604,-0.264 -0.604,-0.587l0,-21.475c0,-0.323 0.272,-0.586 0.604,-0.586l8.144,0c0.329,0 0.599,0.263 0.599,0.586l0,21.475c0,0.323 -0.27,0.587 -0.599,0.587" fill-rule="evenodd" fill="#ffffff"/>
     </g>
    </g>
   </g>
  </g>
 </g>
</svg>